<svg xmlns="http://www.w3.org/2000/svg" xmlns:xlink="http://www.w3.org/1999/xlink" width="3762.698" height="878.408" viewBox="0 0 3762.698 878.408">
  <defs>
    <style>
      .cls-1 {
        opacity: 0.7;
        fill: url(#linear-gradient);
      }

      .cls-2, .cls-5 {
        fill: none;
      }

      .cls-2, .cls-3 {
        stroke: #007a7c;
        stroke-width: 2px;
      }

      .cls-3 {
        fill: #fff;
      }

      .cls-4 {
        stroke: none;
      }
    </style>
    <linearGradient id="linear-gradient" x1="0.5" x2="0.5" y2="1" gradientUnits="objectBoundingBox">
      <stop offset="0" stop-color="#007a7c"/>
      <stop offset="1" stop-color="#fff" stop-opacity="0"/>
    </linearGradient>
  </defs>
  <g id="Grupo_22" data-name="Grupo 22" transform="translate(1209.141 -411.334)" style="opacity: .5">
    <g id="Products_Sold_Graph" data-name="Products Sold Graph" transform="translate(-657.902 411.65)">
      <path id="Filled.Graph" class="cls-1" d="M330,822.827V577.385s370.2,160.989,666,171.1c319.847-9.8,375.232-78.7,624.369-171.1,212.9-77.019,425.215-98.157,629-92.715s380.415,88.642,621.134,97.169c424.655-34.351,641.315-208.025,670.006-280.561V914.109L330,914.382Z" transform="translate(-330 -298.414)"/>
      <path id="Line.Graph" class="cls-2" d="M313,524.853S680.815,689.679,971.635,693.228s402.525-85.057,625.275-168.156,434.509-97.281,629.465-94.488,384.48,89.875,624.023,94.5,627.073-150.528,670.167-279.841" transform="translate(-310.054 -245.24)"/>
      <g id="Mar.Ellipse" class="cls-3" transform="translate(1272.744 267.186)">
        <circle class="cls-4" cx="13.792" cy="13.792" r="13.792"/>
        <circle class="cls-5" cx="13.792" cy="13.792" r="12.792"/>
      </g>
      <g id="Feb.Ellipse" class="cls-3" transform="translate(847.357 419.878)">
        <circle class="cls-4" cx="13.792" cy="13.792" r="13.792"/>
        <circle class="cls-5" cx="13.792" cy="13.792" r="12.792"/>
      </g>
    </g>
    <g id="Products_Sold_Graph-2" data-name="Products Sold Graph" transform="translate(-810.302 673.775)">
      <path id="Filled.Graph-2" data-name="Filled.Graph" class="cls-1" d="M330,822.827V577.385s370.2,160.989,666,171.1c319.847-9.8,375.232-78.7,624.369-171.1,212.9-77.019,425.215-98.157,629-92.715s380.415,88.642,621.134,97.169c424.655-34.351,641.315-208.025,670.006-280.561V914.109L330,914.382Z" transform="translate(-330 -298.414)"/>
      <path id="Line.Graph-2" data-name="Line.Graph" class="cls-2" d="M313,524.853S680.815,689.679,971.635,693.228s402.525-85.057,625.275-168.156,434.509-97.281,629.465-94.488,384.48,89.875,624.023,94.5,627.073-150.528,670.167-279.841" transform="translate(-310.054 -245.24)"/>
      <g id="Mar.Ellipse-2" data-name="Mar.Ellipse" class="cls-3" transform="translate(1272.744 267.186)">
        <circle class="cls-4" cx="13.792" cy="13.792" r="13.792"/>
        <circle class="cls-5" cx="13.792" cy="13.792" r="12.792"/>
      </g>
    </g>
    <g id="Total_Views_Graph" data-name="Total Views Graph" transform="translate(-845.159 436.74)">
      <path id="Filled.Graph-3" data-name="Filled.Graph" class="cls-1" d="M330,729.221v-374.8S691.328,727.05,988.143,741.074c331.172-3.158,333.887-193.446,624.9-297.616,243.629-81.794,429.53,141.325,633.315,146.767s344.427-152.916,622.453-163.918c360.215,16.568,649.261,228.141,671.69,239.517V820.5L330,820.775Z" transform="translate(-328.01 -354.422)"/>
      <path id="Line.Graph-3" data-name="Line.Graph" class="cls-2" d="M312.953,279.164s372.574,379.5,663.755,383.044,390.755-223.6,624.551-300.177S2037.874,508.1,2233.072,510.9,2615.158,343.624,2855,348.246s514.051,133.267,665.647,234.746" transform="translate(-312.953 -275.989)"/>
      <g id="May.Ellipse" class="cls-3" transform="translate(2520.361 57.949)">
        <circle class="cls-4" cx="13.792" cy="13.792" r="13.792"/>
        <circle class="cls-5" cx="13.792" cy="13.792" r="12.792"/>
      </g>
      <g id="Mar.Ellipse-3" data-name="Mar.Ellipse" class="cls-3" transform="translate(1369.369 57.019)">
        <circle class="cls-4" cx="13.792" cy="13.792" r="13.792"/>
        <circle class="cls-5" cx="13.792" cy="13.792" r="12.792"/>
      </g>
    </g>
    <g id="Total_Views_Graph-2" data-name="Total Views Graph" transform="translate(-1208.428 560.869)">
      <path id="Filled.Graph-4" data-name="Filled.Graph" class="cls-1" d="M330,729.221v-374.8S691.328,727.05,988.143,741.074c331.172-3.158,333.887-193.446,624.9-297.616,243.629-81.794,429.53,141.325,633.315,146.767s344.427-152.916,622.453-163.918c360.215,16.568,649.261,228.141,671.69,239.517V820.5L330,820.775Z" transform="translate(-329.21 -354.422)"/>
      <path id="Line.Graph-4" data-name="Line.Graph" class="cls-2" d="M312.953,279.164s372.574,379.5,663.755,383.044,390.755-223.6,624.551-300.177S2037.874,508.1,2233.072,510.9,2615.158,343.624,2855,348.246s514.051,133.267,665.647,234.746" transform="translate(-312.953 -275.989)"/>
      <g id="Apr.Ellipse" class="cls-3" transform="translate(2024.412 205.118)">
        <circle class="cls-4" cx="13.792" cy="13.792" r="13.792"/>
        <circle class="cls-5" cx="13.792" cy="13.792" r="12.792"/>
      </g>
      <g id="Mar.Ellipse-4" data-name="Mar.Ellipse" class="cls-3" transform="translate(1270.564 71.755)">
        <circle class="cls-4" cx="13.792" cy="13.792" r="13.792"/>
        <circle class="cls-5" cx="13.792" cy="13.792" r="12.792"/>
      </g>
    </g>
  </g>
</svg>
